<mxfile host="app.diagrams.net" modified="2023-12-24T05:01:40.011Z" agent="Mozilla/5.0 (Windows NT 10.0; Win64; x64) AppleWebKit/537.36 (KHTML, like Gecko) Chrome/119.0.0.0 Safari/537.36 Edg/119.0.0.0" etag="Jv-rOOra0waZhiog9wHr" version="22.1.11" type="github">
  <diagram name="第 1 页" id="5jqiPOUS7PC7DFS-n38i">
    <mxGraphModel dx="3496" dy="969" grid="1" gridSize="10" guides="1" tooltips="1" connect="1" arrows="1" fold="1" page="1" pageScale="1" pageWidth="2336" pageHeight="1654" math="0" shadow="0">
      <root>
        <mxCell id="0" />
        <mxCell id="1" parent="0" />
        <mxCell id="1rGca7bjClvx7G_nRgda-1" value="&lt;font face=&quot;Comic Sans MS&quot; style=&quot;font-size: 14px;&quot;&gt;已知cache数据区容量为8KB，块大小为512B，主存空间大小为1MB。问当主存和cache之间采用直接映射/全相联映射/组相联映射时，&lt;br&gt;&lt;ol style=&quot;line-height: 150%;&quot;&gt;&lt;li&gt;&lt;font style=&quot;font-size: 14px;&quot;&gt;主存地址如何划分？&lt;/font&gt;&lt;/li&gt;&lt;li&gt;&lt;font style=&quot;font-size: 14px;&quot;&gt;画图表示&lt;/font&gt;主存和cache之间的映射关系&lt;/li&gt;&lt;li&gt;假定此时cache为空，说明CPU对主存单元0240C H的访问过程&lt;/li&gt;&lt;/ol&gt;&lt;div style=&quot;line-height: 150%;&quot;&gt;&lt;br&gt;&lt;/div&gt;&lt;div style=&quot;line-height: 150%;&quot;&gt;&lt;br&gt;&lt;/div&gt;&lt;div style=&quot;line-height: 150%;&quot;&gt;首先审题可知，&lt;/div&gt;&lt;div style=&quot;line-height: 150%;&quot;&gt;&lt;ul style=&quot;line-height: 150%;&quot;&gt;&lt;li&gt;主存容量1MB(2^20B) ——&amp;gt; 主存地址为20位; cache容量为8KB(2^13B)&lt;/li&gt;&lt;li&gt;块大小为512B(2^9B) ——&amp;gt; 块内地址占9位，剩下的11位都是给主存块号的&amp;nbsp;&amp;nbsp;&lt;/li&gt;&lt;li&gt;主存被分为2^20/2^9=2^11=2048块，主存块号从0~2047&lt;/li&gt;&lt;li&gt;cache被分为2^13/2^9=2^4=16块，cache块号从0~15&lt;/li&gt;&lt;/ul&gt;&lt;div style=&quot;line-height: 150%;&quot;&gt;&lt;br&gt;&lt;/div&gt;&lt;/div&gt;&lt;/font&gt;" style="text;html=1;align=left;verticalAlign=top;whiteSpace=wrap;rounded=0;" vertex="1" parent="1">
          <mxGeometry x="-2270" y="50" width="860" height="310" as="geometry" />
        </mxCell>
        <mxCell id="1rGca7bjClvx7G_nRgda-2" value="&lt;h2&gt;明确一些概念：&lt;/h2&gt;&lt;ul style=&quot;line-height: 150%;&quot;&gt;&lt;li&gt;cache块即cache行即cache line，因此cache块号即cache行号&lt;/li&gt;&lt;li&gt;每个cache块的大小与主存块的大小是一致的，一块的大小都是512B&lt;/li&gt;&lt;/ul&gt;" style="rounded=1;whiteSpace=wrap;html=1;align=left;verticalAlign=top;fillColor=#f8cecc;strokeColor=#b85450;" vertex="1" parent="1">
          <mxGeometry x="-1390" y="40" width="520" height="260" as="geometry" />
        </mxCell>
        <mxCell id="1rGca7bjClvx7G_nRgda-6" value="" style="endArrow=none;html=1;rounded=0;" edge="1" parent="1">
          <mxGeometry width="50" height="50" relative="1" as="geometry">
            <mxPoint x="-1980" y="710" as="sourcePoint" />
            <mxPoint x="-1980" y="710" as="targetPoint" />
          </mxGeometry>
        </mxCell>
        <mxCell id="1rGca7bjClvx7G_nRgda-21" value="" style="shape=table;startSize=0;container=1;collapsible=0;childLayout=tableLayout;fontSize=16;swimlaneLine=1;" vertex="1" parent="1">
          <mxGeometry x="-1500" y="480" width="90" height="240" as="geometry" />
        </mxCell>
        <mxCell id="1rGca7bjClvx7G_nRgda-34" style="shape=tableRow;horizontal=0;startSize=0;swimlaneHead=0;swimlaneBody=0;strokeColor=inherit;top=0;left=0;bottom=0;right=0;collapsible=0;dropTarget=0;fillColor=none;points=[[0,0.5],[1,0.5]];portConstraint=eastwest;fontSize=16;" vertex="1" parent="1rGca7bjClvx7G_nRgda-21">
          <mxGeometry width="90" height="37" as="geometry" />
        </mxCell>
        <mxCell id="1rGca7bjClvx7G_nRgda-35" value="512B" style="shape=partialRectangle;html=1;whiteSpace=wrap;connectable=0;strokeColor=inherit;overflow=hidden;fillColor=none;top=0;left=0;bottom=0;right=0;pointerEvents=1;fontSize=16;" vertex="1" parent="1rGca7bjClvx7G_nRgda-34">
          <mxGeometry width="90" height="37" as="geometry">
            <mxRectangle width="90" height="37" as="alternateBounds" />
          </mxGeometry>
        </mxCell>
        <mxCell id="1rGca7bjClvx7G_nRgda-36" style="shape=tableRow;horizontal=0;startSize=0;swimlaneHead=0;swimlaneBody=0;strokeColor=inherit;top=0;left=0;bottom=0;right=0;collapsible=0;dropTarget=0;fillColor=none;points=[[0,0.5],[1,0.5]];portConstraint=eastwest;fontSize=16;" vertex="1" parent="1rGca7bjClvx7G_nRgda-21">
          <mxGeometry y="37" width="90" height="35" as="geometry" />
        </mxCell>
        <mxCell id="1rGca7bjClvx7G_nRgda-37" value="512B" style="shape=partialRectangle;html=1;whiteSpace=wrap;connectable=0;strokeColor=inherit;overflow=hidden;fillColor=none;top=0;left=0;bottom=0;right=0;pointerEvents=1;fontSize=16;" vertex="1" parent="1rGca7bjClvx7G_nRgda-36">
          <mxGeometry width="90" height="35" as="geometry">
            <mxRectangle width="90" height="35" as="alternateBounds" />
          </mxGeometry>
        </mxCell>
        <mxCell id="1rGca7bjClvx7G_nRgda-38" style="shape=tableRow;horizontal=0;startSize=0;swimlaneHead=0;swimlaneBody=0;strokeColor=inherit;top=0;left=0;bottom=0;right=0;collapsible=0;dropTarget=0;fillColor=none;points=[[0,0.5],[1,0.5]];portConstraint=eastwest;fontSize=16;" vertex="1" parent="1rGca7bjClvx7G_nRgda-21">
          <mxGeometry y="72" width="90" height="97" as="geometry" />
        </mxCell>
        <mxCell id="1rGca7bjClvx7G_nRgda-39" value=".&lt;br&gt;.&lt;br&gt;.&lt;br&gt;.&lt;br&gt;." style="shape=partialRectangle;html=1;whiteSpace=wrap;connectable=0;strokeColor=inherit;overflow=hidden;fillColor=none;top=0;left=0;bottom=0;right=0;pointerEvents=1;fontSize=16;" vertex="1" parent="1rGca7bjClvx7G_nRgda-38">
          <mxGeometry width="90" height="97" as="geometry">
            <mxRectangle width="90" height="97" as="alternateBounds" />
          </mxGeometry>
        </mxCell>
        <mxCell id="1rGca7bjClvx7G_nRgda-26" value="" style="shape=tableRow;horizontal=0;startSize=0;swimlaneHead=0;swimlaneBody=0;strokeColor=inherit;top=0;left=0;bottom=0;right=0;collapsible=0;dropTarget=0;fillColor=none;points=[[0,0.5],[1,0.5]];portConstraint=eastwest;fontSize=16;" vertex="1" parent="1rGca7bjClvx7G_nRgda-21">
          <mxGeometry y="169" width="90" height="34" as="geometry" />
        </mxCell>
        <mxCell id="1rGca7bjClvx7G_nRgda-27" value="512B" style="shape=partialRectangle;html=1;whiteSpace=wrap;connectable=0;strokeColor=inherit;overflow=hidden;fillColor=none;top=0;left=0;bottom=0;right=0;pointerEvents=1;fontSize=16;" vertex="1" parent="1rGca7bjClvx7G_nRgda-26">
          <mxGeometry width="90" height="34" as="geometry">
            <mxRectangle width="90" height="34" as="alternateBounds" />
          </mxGeometry>
        </mxCell>
        <mxCell id="1rGca7bjClvx7G_nRgda-30" value="" style="shape=tableRow;horizontal=0;startSize=0;swimlaneHead=0;swimlaneBody=0;strokeColor=inherit;top=0;left=0;bottom=0;right=0;collapsible=0;dropTarget=0;fillColor=none;points=[[0,0.5],[1,0.5]];portConstraint=eastwest;fontSize=16;" vertex="1" parent="1rGca7bjClvx7G_nRgda-21">
          <mxGeometry y="203" width="90" height="37" as="geometry" />
        </mxCell>
        <mxCell id="1rGca7bjClvx7G_nRgda-31" value="512B" style="shape=partialRectangle;html=1;whiteSpace=wrap;connectable=0;strokeColor=inherit;overflow=hidden;fillColor=none;top=0;left=0;bottom=0;right=0;pointerEvents=1;fontSize=16;" vertex="1" parent="1rGca7bjClvx7G_nRgda-30">
          <mxGeometry width="90" height="37" as="geometry">
            <mxRectangle width="90" height="37" as="alternateBounds" />
          </mxGeometry>
        </mxCell>
        <mxCell id="1rGca7bjClvx7G_nRgda-44" value="cache块号" style="text;html=1;align=center;verticalAlign=middle;resizable=0;points=[];autosize=1;strokeColor=none;fillColor=none;" vertex="1" parent="1">
          <mxGeometry x="-1572" y="450" width="80" height="30" as="geometry" />
        </mxCell>
        <mxCell id="1rGca7bjClvx7G_nRgda-45" value="cache块" style="text;html=1;align=center;verticalAlign=middle;resizable=0;points=[];autosize=1;strokeColor=none;fillColor=none;" vertex="1" parent="1">
          <mxGeometry x="-1490" y="450" width="70" height="30" as="geometry" />
        </mxCell>
        <mxCell id="1rGca7bjClvx7G_nRgda-46" value="第15块" style="text;html=1;align=center;verticalAlign=middle;resizable=0;points=[];autosize=1;strokeColor=none;fillColor=none;" vertex="1" parent="1">
          <mxGeometry x="-1560" y="687" width="60" height="30" as="geometry" />
        </mxCell>
        <mxCell id="1rGca7bjClvx7G_nRgda-47" value="第0块" style="text;html=1;align=center;verticalAlign=middle;resizable=0;points=[];autosize=1;strokeColor=none;fillColor=none;" vertex="1" parent="1">
          <mxGeometry x="-1560" y="480" width="60" height="30" as="geometry" />
        </mxCell>
        <mxCell id="1rGca7bjClvx7G_nRgda-48" value="第1块" style="text;html=1;align=center;verticalAlign=middle;resizable=0;points=[];autosize=1;strokeColor=none;fillColor=none;" vertex="1" parent="1">
          <mxGeometry x="-1560" y="520" width="60" height="30" as="geometry" />
        </mxCell>
        <mxCell id="1rGca7bjClvx7G_nRgda-50" value="" style="shape=table;startSize=0;container=1;collapsible=0;childLayout=tableLayout;fontSize=16;swimlaneLine=1;" vertex="1" parent="1">
          <mxGeometry x="-1320" y="458" width="90" height="281" as="geometry" />
        </mxCell>
        <mxCell id="1rGca7bjClvx7G_nRgda-51" style="shape=tableRow;horizontal=0;startSize=0;swimlaneHead=0;swimlaneBody=0;strokeColor=inherit;top=0;left=0;bottom=0;right=0;collapsible=0;dropTarget=0;fillColor=none;points=[[0,0.5],[1,0.5]];portConstraint=eastwest;fontSize=16;" vertex="1" parent="1rGca7bjClvx7G_nRgda-50">
          <mxGeometry width="90" height="35" as="geometry" />
        </mxCell>
        <mxCell id="1rGca7bjClvx7G_nRgda-52" value="512B" style="shape=partialRectangle;html=1;whiteSpace=wrap;connectable=0;strokeColor=inherit;overflow=hidden;fillColor=none;top=0;left=0;bottom=0;right=0;pointerEvents=1;fontSize=16;" vertex="1" parent="1rGca7bjClvx7G_nRgda-51">
          <mxGeometry width="90" height="35" as="geometry">
            <mxRectangle width="90" height="35" as="alternateBounds" />
          </mxGeometry>
        </mxCell>
        <mxCell id="1rGca7bjClvx7G_nRgda-53" style="shape=tableRow;horizontal=0;startSize=0;swimlaneHead=0;swimlaneBody=0;strokeColor=inherit;top=0;left=0;bottom=0;right=0;collapsible=0;dropTarget=0;fillColor=none;points=[[0,0.5],[1,0.5]];portConstraint=eastwest;fontSize=16;" vertex="1" parent="1rGca7bjClvx7G_nRgda-50">
          <mxGeometry y="35" width="90" height="30" as="geometry" />
        </mxCell>
        <mxCell id="1rGca7bjClvx7G_nRgda-54" value="512B" style="shape=partialRectangle;html=1;whiteSpace=wrap;connectable=0;strokeColor=inherit;overflow=hidden;fillColor=none;top=0;left=0;bottom=0;right=0;pointerEvents=1;fontSize=16;" vertex="1" parent="1rGca7bjClvx7G_nRgda-53">
          <mxGeometry width="90" height="30" as="geometry">
            <mxRectangle width="90" height="30" as="alternateBounds" />
          </mxGeometry>
        </mxCell>
        <mxCell id="1rGca7bjClvx7G_nRgda-63" style="shape=tableRow;horizontal=0;startSize=0;swimlaneHead=0;swimlaneBody=0;strokeColor=inherit;top=0;left=0;bottom=0;right=0;collapsible=0;dropTarget=0;fillColor=none;points=[[0,0.5],[1,0.5]];portConstraint=eastwest;fontSize=16;" vertex="1" parent="1rGca7bjClvx7G_nRgda-50">
          <mxGeometry y="65" width="90" height="40" as="geometry" />
        </mxCell>
        <mxCell id="1rGca7bjClvx7G_nRgda-64" value=".&lt;br style=&quot;border-color: var(--border-color);&quot;&gt;." style="shape=partialRectangle;html=1;whiteSpace=wrap;connectable=0;strokeColor=inherit;overflow=hidden;fillColor=none;top=0;left=0;bottom=0;right=0;pointerEvents=1;fontSize=16;" vertex="1" parent="1rGca7bjClvx7G_nRgda-63">
          <mxGeometry width="90" height="40" as="geometry">
            <mxRectangle width="90" height="40" as="alternateBounds" />
          </mxGeometry>
        </mxCell>
        <mxCell id="1rGca7bjClvx7G_nRgda-69" style="shape=tableRow;horizontal=0;startSize=0;swimlaneHead=0;swimlaneBody=0;strokeColor=inherit;top=0;left=0;bottom=0;right=0;collapsible=0;dropTarget=0;fillColor=none;points=[[0,0.5],[1,0.5]];portConstraint=eastwest;fontSize=16;" vertex="1" parent="1rGca7bjClvx7G_nRgda-50">
          <mxGeometry y="105" width="90" height="34" as="geometry" />
        </mxCell>
        <mxCell id="1rGca7bjClvx7G_nRgda-70" value="512B" style="shape=partialRectangle;html=1;whiteSpace=wrap;connectable=0;strokeColor=inherit;overflow=hidden;fillColor=none;top=0;left=0;bottom=0;right=0;pointerEvents=1;fontSize=16;" vertex="1" parent="1rGca7bjClvx7G_nRgda-69">
          <mxGeometry width="90" height="34" as="geometry">
            <mxRectangle width="90" height="34" as="alternateBounds" />
          </mxGeometry>
        </mxCell>
        <mxCell id="1rGca7bjClvx7G_nRgda-75" style="shape=tableRow;horizontal=0;startSize=0;swimlaneHead=0;swimlaneBody=0;strokeColor=inherit;top=0;left=0;bottom=0;right=0;collapsible=0;dropTarget=0;fillColor=none;points=[[0,0.5],[1,0.5]];portConstraint=eastwest;fontSize=16;" vertex="1" parent="1rGca7bjClvx7G_nRgda-50">
          <mxGeometry y="139" width="90" height="30" as="geometry" />
        </mxCell>
        <mxCell id="1rGca7bjClvx7G_nRgda-76" value="512B" style="shape=partialRectangle;html=1;whiteSpace=wrap;connectable=0;strokeColor=inherit;overflow=hidden;fillColor=none;top=0;left=0;bottom=0;right=0;pointerEvents=1;fontSize=16;" vertex="1" parent="1rGca7bjClvx7G_nRgda-75">
          <mxGeometry width="90" height="30" as="geometry">
            <mxRectangle width="90" height="30" as="alternateBounds" />
          </mxGeometry>
        </mxCell>
        <mxCell id="1rGca7bjClvx7G_nRgda-71" style="shape=tableRow;horizontal=0;startSize=0;swimlaneHead=0;swimlaneBody=0;strokeColor=inherit;top=0;left=0;bottom=0;right=0;collapsible=0;dropTarget=0;fillColor=none;points=[[0,0.5],[1,0.5]];portConstraint=eastwest;fontSize=16;" vertex="1" parent="1rGca7bjClvx7G_nRgda-50">
          <mxGeometry y="169" width="90" height="31" as="geometry" />
        </mxCell>
        <mxCell id="1rGca7bjClvx7G_nRgda-72" value="512B" style="shape=partialRectangle;html=1;whiteSpace=wrap;connectable=0;strokeColor=inherit;overflow=hidden;fillColor=none;top=0;left=0;bottom=0;right=0;pointerEvents=1;fontSize=16;" vertex="1" parent="1rGca7bjClvx7G_nRgda-71">
          <mxGeometry width="90" height="31" as="geometry">
            <mxRectangle width="90" height="31" as="alternateBounds" />
          </mxGeometry>
        </mxCell>
        <mxCell id="1rGca7bjClvx7G_nRgda-61" style="shape=tableRow;horizontal=0;startSize=0;swimlaneHead=0;swimlaneBody=0;strokeColor=inherit;top=0;left=0;bottom=0;right=0;collapsible=0;dropTarget=0;fillColor=none;points=[[0,0.5],[1,0.5]];portConstraint=eastwest;fontSize=16;" vertex="1" parent="1rGca7bjClvx7G_nRgda-50">
          <mxGeometry y="200" width="90" height="41" as="geometry" />
        </mxCell>
        <mxCell id="1rGca7bjClvx7G_nRgda-62" value=".&lt;br style=&quot;border-color: var(--border-color);&quot;&gt;." style="shape=partialRectangle;html=1;whiteSpace=wrap;connectable=0;strokeColor=inherit;overflow=hidden;fillColor=none;top=0;left=0;bottom=0;right=0;pointerEvents=1;fontSize=16;" vertex="1" parent="1rGca7bjClvx7G_nRgda-61">
          <mxGeometry width="90" height="41" as="geometry">
            <mxRectangle width="90" height="41" as="alternateBounds" />
          </mxGeometry>
        </mxCell>
        <mxCell id="1rGca7bjClvx7G_nRgda-59" value="" style="shape=tableRow;horizontal=0;startSize=0;swimlaneHead=0;swimlaneBody=0;strokeColor=inherit;top=0;left=0;bottom=0;right=0;collapsible=0;dropTarget=0;fillColor=none;points=[[0,0.5],[1,0.5]];portConstraint=eastwest;fontSize=16;" vertex="1" parent="1rGca7bjClvx7G_nRgda-50">
          <mxGeometry y="241" width="90" height="40" as="geometry" />
        </mxCell>
        <mxCell id="1rGca7bjClvx7G_nRgda-60" value="512B" style="shape=partialRectangle;html=1;whiteSpace=wrap;connectable=0;strokeColor=inherit;overflow=hidden;fillColor=none;top=0;left=0;bottom=0;right=0;pointerEvents=1;fontSize=16;" vertex="1" parent="1rGca7bjClvx7G_nRgda-59">
          <mxGeometry width="90" height="40" as="geometry">
            <mxRectangle width="90" height="40" as="alternateBounds" />
          </mxGeometry>
        </mxCell>
        <mxCell id="1rGca7bjClvx7G_nRgda-65" style="shape=tableRow;horizontal=0;startSize=0;swimlaneHead=0;swimlaneBody=0;strokeColor=inherit;top=0;left=0;bottom=0;right=0;collapsible=0;dropTarget=0;fillColor=none;points=[[0,0.5],[1,0.5]];portConstraint=eastwest;fontSize=16;" vertex="1" parent="1">
          <mxGeometry x="-1218" y="530" width="100" height="115" as="geometry" />
        </mxCell>
        <mxCell id="1rGca7bjClvx7G_nRgda-77" value="主存" style="text;html=1;align=center;verticalAlign=middle;resizable=0;points=[];autosize=1;strokeColor=none;fillColor=none;" vertex="1" parent="1">
          <mxGeometry x="-1300" y="428" width="50" height="30" as="geometry" />
        </mxCell>
        <mxCell id="1rGca7bjClvx7G_nRgda-78" value="主存块号" style="text;html=1;align=center;verticalAlign=middle;resizable=0;points=[];autosize=1;strokeColor=none;fillColor=none;" vertex="1" parent="1">
          <mxGeometry x="-1390" y="428" width="80" height="30" as="geometry" />
        </mxCell>
        <mxCell id="1rGca7bjClvx7G_nRgda-79" value="第0块" style="text;html=1;align=center;verticalAlign=middle;resizable=0;points=[];autosize=1;strokeColor=none;fillColor=none;" vertex="1" parent="1">
          <mxGeometry x="-1380" y="460" width="60" height="30" as="geometry" />
        </mxCell>
        <mxCell id="1rGca7bjClvx7G_nRgda-80" value="第1块" style="text;html=1;align=center;verticalAlign=middle;resizable=0;points=[];autosize=1;strokeColor=none;fillColor=none;" vertex="1" parent="1">
          <mxGeometry x="-1380" y="490" width="60" height="30" as="geometry" />
        </mxCell>
        <mxCell id="1rGca7bjClvx7G_nRgda-81" value="第2047块" style="text;html=1;align=center;verticalAlign=middle;resizable=0;points=[];autosize=1;strokeColor=none;fillColor=none;" vertex="1" parent="1">
          <mxGeometry x="-1390" y="700" width="80" height="30" as="geometry" />
        </mxCell>
        <mxCell id="1rGca7bjClvx7G_nRgda-83" value="第15块" style="text;html=1;align=center;verticalAlign=middle;resizable=0;points=[];autosize=1;strokeColor=none;fillColor=none;" vertex="1" parent="1">
          <mxGeometry x="-1380" y="570" width="60" height="30" as="geometry" />
        </mxCell>
        <mxCell id="1rGca7bjClvx7G_nRgda-84" value="第16块" style="text;html=1;align=center;verticalAlign=middle;resizable=0;points=[];autosize=1;strokeColor=none;fillColor=none;" vertex="1" parent="1">
          <mxGeometry x="-1380" y="600" width="60" height="30" as="geometry" />
        </mxCell>
        <mxCell id="1rGca7bjClvx7G_nRgda-87" value="第17块" style="text;html=1;align=center;verticalAlign=middle;resizable=0;points=[];autosize=1;strokeColor=none;fillColor=none;" vertex="1" parent="1">
          <mxGeometry x="-1380" y="630" width="60" height="30" as="geometry" />
        </mxCell>
        <mxCell id="1rGca7bjClvx7G_nRgda-88" value="" style="shape=table;startSize=0;container=1;collapsible=0;childLayout=tableLayout;fontSize=16;swimlaneLine=1;" vertex="1" parent="1">
          <mxGeometry x="-2176" y="828" width="90" height="206" as="geometry" />
        </mxCell>
        <mxCell id="1rGca7bjClvx7G_nRgda-89" style="shape=tableRow;horizontal=0;startSize=0;swimlaneHead=0;swimlaneBody=0;strokeColor=inherit;top=0;left=0;bottom=0;right=0;collapsible=0;dropTarget=0;fillColor=none;points=[[0,0.5],[1,0.5]];portConstraint=eastwest;fontSize=16;" vertex="1" parent="1rGca7bjClvx7G_nRgda-88">
          <mxGeometry width="90" height="37" as="geometry" />
        </mxCell>
        <mxCell id="1rGca7bjClvx7G_nRgda-90" value="512B" style="shape=partialRectangle;html=1;whiteSpace=wrap;connectable=0;strokeColor=inherit;overflow=hidden;fillColor=none;top=0;left=0;bottom=0;right=0;pointerEvents=1;fontSize=16;" vertex="1" parent="1rGca7bjClvx7G_nRgda-89">
          <mxGeometry width="90" height="37" as="geometry">
            <mxRectangle width="90" height="37" as="alternateBounds" />
          </mxGeometry>
        </mxCell>
        <mxCell id="1rGca7bjClvx7G_nRgda-91" style="shape=tableRow;horizontal=0;startSize=0;swimlaneHead=0;swimlaneBody=0;strokeColor=inherit;top=0;left=0;bottom=0;right=0;collapsible=0;dropTarget=0;fillColor=none;points=[[0,0.5],[1,0.5]];portConstraint=eastwest;fontSize=16;" vertex="1" parent="1rGca7bjClvx7G_nRgda-88">
          <mxGeometry y="37" width="90" height="35" as="geometry" />
        </mxCell>
        <mxCell id="1rGca7bjClvx7G_nRgda-92" value="512B" style="shape=partialRectangle;html=1;whiteSpace=wrap;connectable=0;strokeColor=inherit;overflow=hidden;fillColor=none;top=0;left=0;bottom=0;right=0;pointerEvents=1;fontSize=16;" vertex="1" parent="1rGca7bjClvx7G_nRgda-91">
          <mxGeometry width="90" height="35" as="geometry">
            <mxRectangle width="90" height="35" as="alternateBounds" />
          </mxGeometry>
        </mxCell>
        <mxCell id="1rGca7bjClvx7G_nRgda-93" style="shape=tableRow;horizontal=0;startSize=0;swimlaneHead=0;swimlaneBody=0;strokeColor=inherit;top=0;left=0;bottom=0;right=0;collapsible=0;dropTarget=0;fillColor=none;points=[[0,0.5],[1,0.5]];portConstraint=eastwest;fontSize=16;" vertex="1" parent="1rGca7bjClvx7G_nRgda-88">
          <mxGeometry y="72" width="90" height="97" as="geometry" />
        </mxCell>
        <mxCell id="1rGca7bjClvx7G_nRgda-94" value=".&lt;br&gt;.&lt;br&gt;.&lt;br&gt;.&lt;br&gt;." style="shape=partialRectangle;html=1;whiteSpace=wrap;connectable=0;strokeColor=inherit;overflow=hidden;fillColor=none;top=0;left=0;bottom=0;right=0;pointerEvents=1;fontSize=16;" vertex="1" parent="1rGca7bjClvx7G_nRgda-93">
          <mxGeometry width="90" height="97" as="geometry">
            <mxRectangle width="90" height="97" as="alternateBounds" />
          </mxGeometry>
        </mxCell>
        <mxCell id="1rGca7bjClvx7G_nRgda-97" value="" style="shape=tableRow;horizontal=0;startSize=0;swimlaneHead=0;swimlaneBody=0;strokeColor=inherit;top=0;left=0;bottom=0;right=0;collapsible=0;dropTarget=0;fillColor=none;points=[[0,0.5],[1,0.5]];portConstraint=eastwest;fontSize=16;" vertex="1" parent="1rGca7bjClvx7G_nRgda-88">
          <mxGeometry y="169" width="90" height="37" as="geometry" />
        </mxCell>
        <mxCell id="1rGca7bjClvx7G_nRgda-98" value="512B" style="shape=partialRectangle;html=1;whiteSpace=wrap;connectable=0;strokeColor=inherit;overflow=hidden;fillColor=none;top=0;left=0;bottom=0;right=0;pointerEvents=1;fontSize=16;" vertex="1" parent="1rGca7bjClvx7G_nRgda-97">
          <mxGeometry width="90" height="37" as="geometry">
            <mxRectangle width="90" height="37" as="alternateBounds" />
          </mxGeometry>
        </mxCell>
        <mxCell id="1rGca7bjClvx7G_nRgda-99" value="cache块号" style="text;html=1;align=center;verticalAlign=middle;resizable=0;points=[];autosize=1;strokeColor=none;fillColor=none;" vertex="1" parent="1">
          <mxGeometry x="-2248" y="800" width="80" height="30" as="geometry" />
        </mxCell>
        <mxCell id="1rGca7bjClvx7G_nRgda-100" value="cache块" style="text;html=1;align=center;verticalAlign=middle;resizable=0;points=[];autosize=1;strokeColor=none;fillColor=none;" vertex="1" parent="1">
          <mxGeometry x="-2166" y="800" width="70" height="30" as="geometry" />
        </mxCell>
        <mxCell id="1rGca7bjClvx7G_nRgda-101" value="第15块" style="text;html=1;align=center;verticalAlign=middle;resizable=0;points=[];autosize=1;strokeColor=none;fillColor=none;" vertex="1" parent="1">
          <mxGeometry x="-2238" y="1004" width="60" height="30" as="geometry" />
        </mxCell>
        <mxCell id="1rGca7bjClvx7G_nRgda-102" value="第0块" style="text;html=1;align=center;verticalAlign=middle;resizable=0;points=[];autosize=1;strokeColor=none;fillColor=none;" vertex="1" parent="1">
          <mxGeometry x="-2236" y="830" width="60" height="30" as="geometry" />
        </mxCell>
        <mxCell id="1rGca7bjClvx7G_nRgda-103" value="第1块" style="text;html=1;align=center;verticalAlign=middle;resizable=0;points=[];autosize=1;strokeColor=none;fillColor=none;" vertex="1" parent="1">
          <mxGeometry x="-2236" y="870" width="60" height="30" as="geometry" />
        </mxCell>
        <mxCell id="1rGca7bjClvx7G_nRgda-104" value="" style="shape=table;startSize=0;container=1;collapsible=0;childLayout=tableLayout;fontSize=16;swimlaneLine=1;" vertex="1" parent="1">
          <mxGeometry x="-1996" y="808" width="90" height="281" as="geometry" />
        </mxCell>
        <mxCell id="1rGca7bjClvx7G_nRgda-105" style="shape=tableRow;horizontal=0;startSize=0;swimlaneHead=0;swimlaneBody=0;strokeColor=inherit;top=0;left=0;bottom=0;right=0;collapsible=0;dropTarget=0;fillColor=none;points=[[0,0.5],[1,0.5]];portConstraint=eastwest;fontSize=16;" vertex="1" parent="1rGca7bjClvx7G_nRgda-104">
          <mxGeometry width="90" height="35" as="geometry" />
        </mxCell>
        <mxCell id="1rGca7bjClvx7G_nRgda-106" value="512B" style="shape=partialRectangle;html=1;whiteSpace=wrap;connectable=0;strokeColor=inherit;overflow=hidden;fillColor=none;top=0;left=0;bottom=0;right=0;pointerEvents=1;fontSize=16;" vertex="1" parent="1rGca7bjClvx7G_nRgda-105">
          <mxGeometry width="90" height="35" as="geometry">
            <mxRectangle width="90" height="35" as="alternateBounds" />
          </mxGeometry>
        </mxCell>
        <mxCell id="1rGca7bjClvx7G_nRgda-107" style="shape=tableRow;horizontal=0;startSize=0;swimlaneHead=0;swimlaneBody=0;strokeColor=inherit;top=0;left=0;bottom=0;right=0;collapsible=0;dropTarget=0;fillColor=none;points=[[0,0.5],[1,0.5]];portConstraint=eastwest;fontSize=16;" vertex="1" parent="1rGca7bjClvx7G_nRgda-104">
          <mxGeometry y="35" width="90" height="30" as="geometry" />
        </mxCell>
        <mxCell id="1rGca7bjClvx7G_nRgda-108" value="512B" style="shape=partialRectangle;html=1;whiteSpace=wrap;connectable=0;strokeColor=inherit;overflow=hidden;fillColor=none;top=0;left=0;bottom=0;right=0;pointerEvents=1;fontSize=16;" vertex="1" parent="1rGca7bjClvx7G_nRgda-107">
          <mxGeometry width="90" height="30" as="geometry">
            <mxRectangle width="90" height="30" as="alternateBounds" />
          </mxGeometry>
        </mxCell>
        <mxCell id="1rGca7bjClvx7G_nRgda-109" style="shape=tableRow;horizontal=0;startSize=0;swimlaneHead=0;swimlaneBody=0;strokeColor=inherit;top=0;left=0;bottom=0;right=0;collapsible=0;dropTarget=0;fillColor=none;points=[[0,0.5],[1,0.5]];portConstraint=eastwest;fontSize=16;" vertex="1" parent="1rGca7bjClvx7G_nRgda-104">
          <mxGeometry y="65" width="90" height="40" as="geometry" />
        </mxCell>
        <mxCell id="1rGca7bjClvx7G_nRgda-110" value=".&lt;br style=&quot;border-color: var(--border-color);&quot;&gt;." style="shape=partialRectangle;html=1;whiteSpace=wrap;connectable=0;strokeColor=inherit;overflow=hidden;fillColor=none;top=0;left=0;bottom=0;right=0;pointerEvents=1;fontSize=16;" vertex="1" parent="1rGca7bjClvx7G_nRgda-109">
          <mxGeometry width="90" height="40" as="geometry">
            <mxRectangle width="90" height="40" as="alternateBounds" />
          </mxGeometry>
        </mxCell>
        <mxCell id="1rGca7bjClvx7G_nRgda-111" style="shape=tableRow;horizontal=0;startSize=0;swimlaneHead=0;swimlaneBody=0;strokeColor=inherit;top=0;left=0;bottom=0;right=0;collapsible=0;dropTarget=0;fillColor=none;points=[[0,0.5],[1,0.5]];portConstraint=eastwest;fontSize=16;" vertex="1" parent="1rGca7bjClvx7G_nRgda-104">
          <mxGeometry y="105" width="90" height="34" as="geometry" />
        </mxCell>
        <mxCell id="1rGca7bjClvx7G_nRgda-112" value="512B" style="shape=partialRectangle;html=1;whiteSpace=wrap;connectable=0;strokeColor=inherit;overflow=hidden;fillColor=none;top=0;left=0;bottom=0;right=0;pointerEvents=1;fontSize=16;" vertex="1" parent="1rGca7bjClvx7G_nRgda-111">
          <mxGeometry width="90" height="34" as="geometry">
            <mxRectangle width="90" height="34" as="alternateBounds" />
          </mxGeometry>
        </mxCell>
        <mxCell id="1rGca7bjClvx7G_nRgda-113" style="shape=tableRow;horizontal=0;startSize=0;swimlaneHead=0;swimlaneBody=0;strokeColor=inherit;top=0;left=0;bottom=0;right=0;collapsible=0;dropTarget=0;fillColor=none;points=[[0,0.5],[1,0.5]];portConstraint=eastwest;fontSize=16;" vertex="1" parent="1rGca7bjClvx7G_nRgda-104">
          <mxGeometry y="139" width="90" height="30" as="geometry" />
        </mxCell>
        <mxCell id="1rGca7bjClvx7G_nRgda-114" value="512B" style="shape=partialRectangle;html=1;whiteSpace=wrap;connectable=0;strokeColor=inherit;overflow=hidden;fillColor=none;top=0;left=0;bottom=0;right=0;pointerEvents=1;fontSize=16;" vertex="1" parent="1rGca7bjClvx7G_nRgda-113">
          <mxGeometry width="90" height="30" as="geometry">
            <mxRectangle width="90" height="30" as="alternateBounds" />
          </mxGeometry>
        </mxCell>
        <mxCell id="1rGca7bjClvx7G_nRgda-115" style="shape=tableRow;horizontal=0;startSize=0;swimlaneHead=0;swimlaneBody=0;strokeColor=inherit;top=0;left=0;bottom=0;right=0;collapsible=0;dropTarget=0;fillColor=none;points=[[0,0.5],[1,0.5]];portConstraint=eastwest;fontSize=16;" vertex="1" parent="1rGca7bjClvx7G_nRgda-104">
          <mxGeometry y="169" width="90" height="31" as="geometry" />
        </mxCell>
        <mxCell id="1rGca7bjClvx7G_nRgda-116" value="512B" style="shape=partialRectangle;html=1;whiteSpace=wrap;connectable=0;strokeColor=inherit;overflow=hidden;fillColor=none;top=0;left=0;bottom=0;right=0;pointerEvents=1;fontSize=16;" vertex="1" parent="1rGca7bjClvx7G_nRgda-115">
          <mxGeometry width="90" height="31" as="geometry">
            <mxRectangle width="90" height="31" as="alternateBounds" />
          </mxGeometry>
        </mxCell>
        <mxCell id="1rGca7bjClvx7G_nRgda-117" style="shape=tableRow;horizontal=0;startSize=0;swimlaneHead=0;swimlaneBody=0;strokeColor=inherit;top=0;left=0;bottom=0;right=0;collapsible=0;dropTarget=0;fillColor=none;points=[[0,0.5],[1,0.5]];portConstraint=eastwest;fontSize=16;" vertex="1" parent="1rGca7bjClvx7G_nRgda-104">
          <mxGeometry y="200" width="90" height="41" as="geometry" />
        </mxCell>
        <mxCell id="1rGca7bjClvx7G_nRgda-118" value=".&lt;br style=&quot;border-color: var(--border-color);&quot;&gt;." style="shape=partialRectangle;html=1;whiteSpace=wrap;connectable=0;strokeColor=inherit;overflow=hidden;fillColor=none;top=0;left=0;bottom=0;right=0;pointerEvents=1;fontSize=16;" vertex="1" parent="1rGca7bjClvx7G_nRgda-117">
          <mxGeometry width="90" height="41" as="geometry">
            <mxRectangle width="90" height="41" as="alternateBounds" />
          </mxGeometry>
        </mxCell>
        <mxCell id="1rGca7bjClvx7G_nRgda-119" value="" style="shape=tableRow;horizontal=0;startSize=0;swimlaneHead=0;swimlaneBody=0;strokeColor=inherit;top=0;left=0;bottom=0;right=0;collapsible=0;dropTarget=0;fillColor=none;points=[[0,0.5],[1,0.5]];portConstraint=eastwest;fontSize=16;" vertex="1" parent="1rGca7bjClvx7G_nRgda-104">
          <mxGeometry y="241" width="90" height="40" as="geometry" />
        </mxCell>
        <mxCell id="1rGca7bjClvx7G_nRgda-120" value="512B" style="shape=partialRectangle;html=1;whiteSpace=wrap;connectable=0;strokeColor=inherit;overflow=hidden;fillColor=none;top=0;left=0;bottom=0;right=0;pointerEvents=1;fontSize=16;" vertex="1" parent="1rGca7bjClvx7G_nRgda-119">
          <mxGeometry width="90" height="40" as="geometry">
            <mxRectangle width="90" height="40" as="alternateBounds" />
          </mxGeometry>
        </mxCell>
        <mxCell id="1rGca7bjClvx7G_nRgda-121" value="主存" style="text;html=1;align=center;verticalAlign=middle;resizable=0;points=[];autosize=1;strokeColor=none;fillColor=none;" vertex="1" parent="1">
          <mxGeometry x="-1978" y="770" width="50" height="30" as="geometry" />
        </mxCell>
        <mxCell id="1rGca7bjClvx7G_nRgda-122" value="主存块号" style="text;html=1;align=center;verticalAlign=middle;resizable=0;points=[];autosize=1;strokeColor=none;fillColor=none;" vertex="1" parent="1">
          <mxGeometry x="-2066" y="770" width="80" height="30" as="geometry" />
        </mxCell>
        <mxCell id="1rGca7bjClvx7G_nRgda-123" value="第0块" style="text;html=1;align=center;verticalAlign=middle;resizable=0;points=[];autosize=1;strokeColor=none;fillColor=none;" vertex="1" parent="1">
          <mxGeometry x="-2056" y="810" width="60" height="30" as="geometry" />
        </mxCell>
        <mxCell id="1rGca7bjClvx7G_nRgda-124" value="第1块" style="text;html=1;align=center;verticalAlign=middle;resizable=0;points=[];autosize=1;strokeColor=none;fillColor=none;" vertex="1" parent="1">
          <mxGeometry x="-2056" y="842" width="60" height="30" as="geometry" />
        </mxCell>
        <mxCell id="1rGca7bjClvx7G_nRgda-125" value="第2047块" style="text;html=1;align=center;verticalAlign=middle;resizable=0;points=[];autosize=1;strokeColor=none;fillColor=none;" vertex="1" parent="1">
          <mxGeometry x="-2066" y="1050" width="80" height="30" as="geometry" />
        </mxCell>
        <mxCell id="1rGca7bjClvx7G_nRgda-126" value="第15块" style="text;html=1;align=center;verticalAlign=middle;resizable=0;points=[];autosize=1;strokeColor=none;fillColor=none;" vertex="1" parent="1">
          <mxGeometry x="-2056" y="920" width="60" height="30" as="geometry" />
        </mxCell>
        <mxCell id="1rGca7bjClvx7G_nRgda-127" value="第16块" style="text;html=1;align=center;verticalAlign=middle;resizable=0;points=[];autosize=1;strokeColor=none;fillColor=none;" vertex="1" parent="1">
          <mxGeometry x="-2056" y="950" width="60" height="30" as="geometry" />
        </mxCell>
        <mxCell id="1rGca7bjClvx7G_nRgda-128" value="第17块" style="text;html=1;align=center;verticalAlign=middle;resizable=0;points=[];autosize=1;strokeColor=none;fillColor=none;" vertex="1" parent="1">
          <mxGeometry x="-2056" y="980" width="60" height="30" as="geometry" />
        </mxCell>
        <mxCell id="1rGca7bjClvx7G_nRgda-129" value="&lt;font color=&quot;#ff33ff&quot;&gt;0..00&lt;/font&gt;&amp;nbsp; &lt;font color=&quot;#ff0000&quot;&gt;0000&lt;/font&gt;&lt;font color=&quot;#00ffff&quot;&gt;&amp;nbsp; &lt;/font&gt;&lt;font color=&quot;#00cccc&quot;&gt;0..00&lt;/font&gt;&amp;nbsp; ~&amp;nbsp; &lt;font color=&quot;#ff33ff&quot;&gt;0..00&lt;/font&gt;&amp;nbsp; &lt;font color=&quot;#ff0000&quot;&gt;0000&lt;/font&gt;&amp;nbsp; &lt;font color=&quot;#00cccc&quot;&gt;1..11&lt;/font&gt;" style="text;html=1;strokeColor=none;fillColor=none;align=center;verticalAlign=middle;whiteSpace=wrap;rounded=0;" vertex="1" parent="1">
          <mxGeometry x="-1898" y="810" width="240" height="31" as="geometry" />
        </mxCell>
        <mxCell id="1rGca7bjClvx7G_nRgda-130" value="&lt;font color=&quot;#ff33ff&quot;&gt;0..00&lt;/font&gt;&amp;nbsp; &lt;font color=&quot;#ff0000&quot;&gt;0001&lt;/font&gt;&lt;font color=&quot;#00ffff&quot;&gt;&amp;nbsp;&amp;nbsp;&lt;/font&gt;&lt;font color=&quot;#00cccc&quot;&gt;0..00&lt;/font&gt;&amp;nbsp; ~&amp;nbsp; &lt;font color=&quot;#ff33ff&quot;&gt;0..00&lt;/font&gt;&amp;nbsp; &lt;font color=&quot;#ff0000&quot;&gt;0001&lt;/font&gt;&amp;nbsp;&amp;nbsp;&lt;font color=&quot;#00cccc&quot;&gt;1..11&lt;/font&gt;" style="text;html=1;strokeColor=none;fillColor=none;align=center;verticalAlign=middle;whiteSpace=wrap;rounded=0;" vertex="1" parent="1">
          <mxGeometry x="-1898" y="841" width="240" height="31" as="geometry" />
        </mxCell>
        <mxCell id="1rGca7bjClvx7G_nRgda-135" value="" style="endArrow=classic;html=1;rounded=0;exitX=-0.003;exitY=0.097;exitDx=0;exitDy=0;exitPerimeter=0;" edge="1" parent="1" source="1rGca7bjClvx7G_nRgda-104" target="1rGca7bjClvx7G_nRgda-89">
          <mxGeometry width="50" height="50" relative="1" as="geometry">
            <mxPoint x="-2068" y="891" as="sourcePoint" />
            <mxPoint x="-2018" y="841" as="targetPoint" />
          </mxGeometry>
        </mxCell>
        <mxCell id="1rGca7bjClvx7G_nRgda-136" value="" style="endArrow=classic;html=1;rounded=0;exitX=-0.003;exitY=0.097;exitDx=0;exitDy=0;exitPerimeter=0;" edge="1" parent="1">
          <mxGeometry width="50" height="50" relative="1" as="geometry">
            <mxPoint x="-1996" y="865.5" as="sourcePoint" />
            <mxPoint x="-2086" y="875" as="targetPoint" />
          </mxGeometry>
        </mxCell>
        <mxCell id="1rGca7bjClvx7G_nRgda-138" value="" style="endArrow=classic;html=1;rounded=0;exitX=1.017;exitY=0.71;exitDx=0;exitDy=0;exitPerimeter=0;" edge="1" parent="1" source="1rGca7bjClvx7G_nRgda-126">
          <mxGeometry width="50" height="50" relative="1" as="geometry">
            <mxPoint x="-1996" y="1010" as="sourcePoint" />
            <mxPoint x="-2086" y="1019" as="targetPoint" />
          </mxGeometry>
        </mxCell>
        <mxCell id="1rGca7bjClvx7G_nRgda-139" value="" style="endArrow=classic;html=1;rounded=0;exitX=1.051;exitY=0.636;exitDx=0;exitDy=0;exitPerimeter=0;entryX=1;entryY=0.5;entryDx=0;entryDy=0;" edge="1" parent="1">
          <mxGeometry width="50" height="50" relative="1" as="geometry">
            <mxPoint x="-1994.9399999999998" y="968.0800000000002" as="sourcePoint" />
            <mxPoint x="-2088" y="845.4999999999998" as="targetPoint" />
          </mxGeometry>
        </mxCell>
        <mxCell id="1rGca7bjClvx7G_nRgda-140" value="" style="endArrow=classic;html=1;rounded=0;entryX=1;entryY=0.5;entryDx=0;entryDy=0;" edge="1" parent="1">
          <mxGeometry width="50" height="50" relative="1" as="geometry">
            <mxPoint x="-1995" y="1002" as="sourcePoint" />
            <mxPoint x="-2088" y="880" as="targetPoint" />
          </mxGeometry>
        </mxCell>
        <mxCell id="1rGca7bjClvx7G_nRgda-7" value="20位主存地址" style="shape=table;startSize=30;container=1;collapsible=0;childLayout=tableLayout;strokeColor=default;fontSize=16;" vertex="1" parent="1">
          <mxGeometry x="-2110" y="600" width="230" height="93" as="geometry" />
        </mxCell>
        <mxCell id="1rGca7bjClvx7G_nRgda-8" value="" style="shape=tableRow;horizontal=0;startSize=0;swimlaneHead=0;swimlaneBody=0;strokeColor=inherit;top=0;left=0;bottom=0;right=0;collapsible=0;dropTarget=0;fillColor=none;points=[[0,0.5],[1,0.5]];portConstraint=eastwest;fontSize=16;" vertex="1" parent="1rGca7bjClvx7G_nRgda-7">
          <mxGeometry y="30" width="230" height="31" as="geometry" />
        </mxCell>
        <mxCell id="1rGca7bjClvx7G_nRgda-9" value="标记" style="shape=partialRectangle;html=1;whiteSpace=wrap;connectable=0;strokeColor=inherit;overflow=hidden;fillColor=none;top=0;left=0;bottom=0;right=0;pointerEvents=1;fontSize=16;" vertex="1" parent="1rGca7bjClvx7G_nRgda-8">
          <mxGeometry width="74" height="31" as="geometry">
            <mxRectangle width="74" height="31" as="alternateBounds" />
          </mxGeometry>
        </mxCell>
        <mxCell id="1rGca7bjClvx7G_nRgda-10" value="cache块号" style="shape=partialRectangle;html=1;whiteSpace=wrap;connectable=0;strokeColor=inherit;overflow=hidden;fillColor=none;top=0;left=0;bottom=0;right=0;pointerEvents=1;fontSize=16;" vertex="1" parent="1rGca7bjClvx7G_nRgda-8">
          <mxGeometry x="74" width="80" height="31" as="geometry">
            <mxRectangle width="80" height="31" as="alternateBounds" />
          </mxGeometry>
        </mxCell>
        <mxCell id="1rGca7bjClvx7G_nRgda-11" value="块内地址" style="shape=partialRectangle;html=1;whiteSpace=wrap;connectable=0;strokeColor=inherit;overflow=hidden;fillColor=none;top=0;left=0;bottom=0;right=0;pointerEvents=1;fontSize=16;" vertex="1" parent="1rGca7bjClvx7G_nRgda-8">
          <mxGeometry x="154" width="76" height="31" as="geometry">
            <mxRectangle width="76" height="31" as="alternateBounds" />
          </mxGeometry>
        </mxCell>
        <mxCell id="1rGca7bjClvx7G_nRgda-12" value="" style="shape=tableRow;horizontal=0;startSize=0;swimlaneHead=0;swimlaneBody=0;strokeColor=inherit;top=0;left=0;bottom=0;right=0;collapsible=0;dropTarget=0;fillColor=none;points=[[0,0.5],[1,0.5]];portConstraint=eastwest;fontSize=16;" vertex="1" parent="1rGca7bjClvx7G_nRgda-7">
          <mxGeometry y="61" width="230" height="32" as="geometry" />
        </mxCell>
        <mxCell id="1rGca7bjClvx7G_nRgda-13" value="7" style="shape=partialRectangle;html=1;whiteSpace=wrap;connectable=0;strokeColor=inherit;overflow=hidden;fillColor=none;top=0;left=0;bottom=0;right=0;pointerEvents=1;fontSize=16;" vertex="1" parent="1rGca7bjClvx7G_nRgda-12">
          <mxGeometry width="74" height="32" as="geometry">
            <mxRectangle width="74" height="32" as="alternateBounds" />
          </mxGeometry>
        </mxCell>
        <mxCell id="1rGca7bjClvx7G_nRgda-14" value="4" style="shape=partialRectangle;html=1;whiteSpace=wrap;connectable=0;strokeColor=inherit;overflow=hidden;fillColor=none;top=0;left=0;bottom=0;right=0;pointerEvents=1;fontSize=16;" vertex="1" parent="1rGca7bjClvx7G_nRgda-12">
          <mxGeometry x="74" width="80" height="32" as="geometry">
            <mxRectangle width="80" height="32" as="alternateBounds" />
          </mxGeometry>
        </mxCell>
        <mxCell id="1rGca7bjClvx7G_nRgda-15" value="9" style="shape=partialRectangle;html=1;whiteSpace=wrap;connectable=0;strokeColor=inherit;overflow=hidden;fillColor=none;top=0;left=0;bottom=0;right=0;pointerEvents=1;fontSize=16;" vertex="1" parent="1rGca7bjClvx7G_nRgda-12">
          <mxGeometry x="154" width="76" height="32" as="geometry">
            <mxRectangle width="76" height="32" as="alternateBounds" />
          </mxGeometry>
        </mxCell>
        <mxCell id="1rGca7bjClvx7G_nRgda-143" value="&lt;h1 style=&quot;border-color: var(--border-color); color: rgb(51, 51, 51);&quot;&gt;&lt;font style=&quot;border-color: var(--border-color); font-size: 26px;&quot;&gt;直接映射&lt;/font&gt;&lt;/h1&gt;&lt;p style=&quot;border-color: var(--border-color); color: rgb(51, 51, 51); text-align: left; font-size: 19px;&quot;&gt;&lt;font style=&quot;border-color: var(--border-color);&quot;&gt;直接映射就是主存中每一块只能映射到固定的一个cache块中。&lt;/font&gt;&lt;/p&gt;&lt;p style=&quot;border-color: var(--border-color); color: rgb(51, 51, 51); text-align: left; font-size: 19px;&quot;&gt;&lt;font style=&quot;border-color: var(--border-color);&quot;&gt;&lt;font style=&quot;border-color: var(--border-color);&quot;&gt;映射关系&lt;/font&gt;&lt;font style=&quot;border-color: var(--border-color);&quot;&gt;：cache块号 = 主存块号 mod cache块数 （mod:求模取余）&lt;/font&gt;&lt;/font&gt;&lt;/p&gt;&lt;p style=&quot;border-color: var(--border-color); color: rgb(51, 51, 51); text-align: left; font-size: 19px;&quot;&gt;&lt;font style=&quot;border-color: var(--border-color);&quot;&gt;&lt;br style=&quot;border-color: var(--border-color);&quot;&gt;&lt;/font&gt;&lt;/p&gt;&lt;p style=&quot;border-color: var(--border-color); color: rgb(51, 51, 51); text-align: left;&quot;&gt;&lt;font style=&quot;border-color: var(--border-color);&quot;&gt;&lt;font style=&quot;border-color: var(--border-color); font-size: 15px;&quot;&gt;由于cache被分为16块，因此cache块数占4位，主存地址的20位中剩下20-9-4=7位都是标记位。&lt;/font&gt;&lt;br style=&quot;border-color: var(--border-color);&quot;&gt;&lt;/font&gt;&lt;/p&gt;&lt;p style=&quot;border-color: var(--border-color); color: rgb(51, 51, 51); text-align: left;&quot;&gt;&lt;font style=&quot;border-color: var(--border-color);&quot;&gt;&lt;font style=&quot;border-color: var(--border-color);&quot;&gt;&lt;font style=&quot;border-color: var(--border-color); font-size: 15px;&quot;&gt;因此20位的主存地址的结构为：&lt;/font&gt;&lt;/font&gt;&lt;/font&gt;&lt;/p&gt;" style="text;html=1;strokeColor=none;fillColor=none;align=center;verticalAlign=middle;whiteSpace=wrap;rounded=0;" vertex="1" parent="1">
          <mxGeometry x="-2336" y="360" width="646" height="245" as="geometry" />
        </mxCell>
        <mxCell id="1rGca7bjClvx7G_nRgda-148" value="" style="shape=table;startSize=0;container=1;collapsible=0;childLayout=tableLayout;" vertex="1" parent="1">
          <mxGeometry x="-1810" y="649" width="120" height="40" as="geometry" />
        </mxCell>
        <mxCell id="1rGca7bjClvx7G_nRgda-149" value="" style="shape=tableRow;horizontal=0;startSize=0;swimlaneHead=0;swimlaneBody=0;strokeColor=inherit;top=0;left=0;bottom=0;right=0;collapsible=0;dropTarget=0;fillColor=none;points=[[0,0.5],[1,0.5]];portConstraint=eastwest;" vertex="1" parent="1rGca7bjClvx7G_nRgda-148">
          <mxGeometry width="120" height="40" as="geometry" />
        </mxCell>
        <mxCell id="1rGca7bjClvx7G_nRgda-150" value="" style="shape=partialRectangle;html=1;whiteSpace=wrap;connectable=0;strokeColor=inherit;overflow=hidden;fillColor=none;top=0;left=0;bottom=0;right=0;pointerEvents=1;" vertex="1" parent="1rGca7bjClvx7G_nRgda-149">
          <mxGeometry width="60" height="40" as="geometry">
            <mxRectangle width="60" height="40" as="alternateBounds" />
          </mxGeometry>
        </mxCell>
        <mxCell id="1rGca7bjClvx7G_nRgda-151" value="" style="shape=partialRectangle;html=1;whiteSpace=wrap;connectable=0;strokeColor=inherit;overflow=hidden;fillColor=none;top=0;left=0;bottom=0;right=0;pointerEvents=1;" vertex="1" parent="1rGca7bjClvx7G_nRgda-149">
          <mxGeometry x="60" width="60" height="40" as="geometry">
            <mxRectangle width="60" height="40" as="alternateBounds" />
          </mxGeometry>
        </mxCell>
      </root>
    </mxGraphModel>
  </diagram>
</mxfile>
